<mxfile host="app.diagrams.net" agent="Mozilla/5.0 (Windows NT 10.0; Win64; x64) AppleWebKit/537.36 (KHTML, like Gecko) Chrome/129.0.0.0 Safari/537.36" version="24.7.17">
  <diagram name="Page-1" id="MzrkUvAVExrqLXeOBWW9">
    <mxGraphModel dx="1434" dy="772" grid="1" gridSize="10" guides="1" tooltips="1" connect="1" arrows="1" fold="1" page="1" pageScale="1" pageWidth="827" pageHeight="1169" math="0" shadow="0">
      <root>
        <mxCell id="0" />
        <mxCell id="1" parent="0" />
        <mxCell id="KT3608-lLML2SJegZQi2-1" value="User" style="shape=umlActor;verticalLabelPosition=bottom;verticalAlign=top;html=1;outlineConnect=0;" parent="1" vertex="1">
          <mxGeometry x="140" y="250" width="30" height="60" as="geometry" />
        </mxCell>
        <mxCell id="KT3608-lLML2SJegZQi2-2" value="" style="rounded=1;whiteSpace=wrap;html=1;" parent="1" vertex="1">
          <mxGeometry x="200" y="215" width="640" height="130" as="geometry" />
        </mxCell>
        <mxCell id="KT3608-lLML2SJegZQi2-3" style="edgeStyle=orthogonalEdgeStyle;rounded=0;orthogonalLoop=1;jettySize=auto;html=1;" parent="1" source="KT3608-lLML2SJegZQi2-4" target="KT3608-lLML2SJegZQi2-6" edge="1">
          <mxGeometry relative="1" as="geometry" />
        </mxCell>
        <mxCell id="KT3608-lLML2SJegZQi2-4" value="Authorization and Authentication" style="rounded=1;whiteSpace=wrap;html=1;" parent="1" vertex="1">
          <mxGeometry x="260" y="250" width="120" height="60" as="geometry" />
        </mxCell>
        <mxCell id="KT3608-lLML2SJegZQi2-5" style="edgeStyle=orthogonalEdgeStyle;rounded=0;orthogonalLoop=1;jettySize=auto;html=1;startArrow=classic;startFill=1;" parent="1" source="KT3608-lLML2SJegZQi2-6" target="KT3608-lLML2SJegZQi2-7" edge="1">
          <mxGeometry relative="1" as="geometry" />
        </mxCell>
        <mxCell id="KT3608-lLML2SJegZQi2-6" value="Dashboard&lt;div&gt;Subsystem&lt;/div&gt;" style="rounded=1;whiteSpace=wrap;html=1;" parent="1" vertex="1">
          <mxGeometry x="460" y="250" width="120" height="60" as="geometry" />
        </mxCell>
        <mxCell id="KT3608-lLML2SJegZQi2-7" value="Information Handling System" style="rounded=1;whiteSpace=wrap;html=1;" parent="1" vertex="1">
          <mxGeometry x="650" y="250" width="120" height="60" as="geometry" />
        </mxCell>
        <mxCell id="KT3608-lLML2SJegZQi2-8" value="" style="rounded=1;whiteSpace=wrap;html=1;" parent="1" vertex="1">
          <mxGeometry x="110" y="380" width="840" height="240" as="geometry" />
        </mxCell>
        <mxCell id="KT3608-lLML2SJegZQi2-40" style="edgeStyle=orthogonalEdgeStyle;rounded=0;orthogonalLoop=1;jettySize=auto;html=1;" parent="1" source="KT3608-lLML2SJegZQi2-9" target="KT3608-lLML2SJegZQi2-25" edge="1">
          <mxGeometry relative="1" as="geometry">
            <Array as="points">
              <mxPoint x="252" y="640" />
              <mxPoint x="812" y="640" />
            </Array>
          </mxGeometry>
        </mxCell>
        <mxCell id="KT3608-lLML2SJegZQi2-9" value="Lung Disease Detection Tool" style="rounded=1;whiteSpace=wrap;html=1;" parent="1" vertex="1">
          <mxGeometry x="191.5" y="530" width="120" height="60" as="geometry" />
        </mxCell>
        <mxCell id="KT3608-lLML2SJegZQi2-41" style="edgeStyle=orthogonalEdgeStyle;rounded=0;orthogonalLoop=1;jettySize=auto;html=1;" parent="1" source="KT3608-lLML2SJegZQi2-10" edge="1">
          <mxGeometry relative="1" as="geometry">
            <mxPoint x="402" y="640" as="targetPoint" />
            <Array as="points">
              <mxPoint x="401" y="620" />
              <mxPoint x="402" y="620" />
            </Array>
          </mxGeometry>
        </mxCell>
        <mxCell id="KT3608-lLML2SJegZQi2-10" value="Appointment Management Subsystem" style="rounded=1;whiteSpace=wrap;html=1;" parent="1" vertex="1">
          <mxGeometry x="341.5" y="530" width="120" height="60" as="geometry" />
        </mxCell>
        <mxCell id="KT3608-lLML2SJegZQi2-42" style="edgeStyle=orthogonalEdgeStyle;rounded=0;orthogonalLoop=1;jettySize=auto;html=1;" parent="1" source="KT3608-lLML2SJegZQi2-11" edge="1">
          <mxGeometry relative="1" as="geometry">
            <mxPoint x="550" y="640" as="targetPoint" />
          </mxGeometry>
        </mxCell>
        <mxCell id="KT3608-lLML2SJegZQi2-11" value="Hospital/Doctor Recommendation Subsystem" style="rounded=1;whiteSpace=wrap;html=1;" parent="1" vertex="1">
          <mxGeometry x="490" y="530" width="120" height="60" as="geometry" />
        </mxCell>
        <mxCell id="KT3608-lLML2SJegZQi2-12" style="edgeStyle=orthogonalEdgeStyle;rounded=0;orthogonalLoop=1;jettySize=auto;html=1;startArrow=classic;startFill=1;" parent="1" source="KT3608-lLML2SJegZQi2-15" target="KT3608-lLML2SJegZQi2-9" edge="1">
          <mxGeometry relative="1" as="geometry">
            <Array as="points">
              <mxPoint x="230" y="440" />
            </Array>
          </mxGeometry>
        </mxCell>
        <mxCell id="KT3608-lLML2SJegZQi2-13" style="edgeStyle=orthogonalEdgeStyle;rounded=0;orthogonalLoop=1;jettySize=auto;html=1;startArrow=classic;startFill=1;" parent="1" source="KT3608-lLML2SJegZQi2-15" target="KT3608-lLML2SJegZQi2-10" edge="1">
          <mxGeometry relative="1" as="geometry">
            <Array as="points">
              <mxPoint x="370" y="520" />
              <mxPoint x="370" y="520" />
            </Array>
          </mxGeometry>
        </mxCell>
        <mxCell id="KT3608-lLML2SJegZQi2-14" style="edgeStyle=orthogonalEdgeStyle;rounded=0;orthogonalLoop=1;jettySize=auto;html=1;startArrow=classic;startFill=1;" parent="1" source="KT3608-lLML2SJegZQi2-15" target="KT3608-lLML2SJegZQi2-11" edge="1">
          <mxGeometry relative="1" as="geometry">
            <Array as="points">
              <mxPoint x="470" y="490" />
              <mxPoint x="510" y="490" />
            </Array>
          </mxGeometry>
        </mxCell>
        <mxCell id="KT3608-lLML2SJegZQi2-15" value="Doctor Subsystem" style="rounded=1;whiteSpace=wrap;html=1;" parent="1" vertex="1">
          <mxGeometry x="265" y="410" width="245" height="60" as="geometry" />
        </mxCell>
        <mxCell id="KT3608-lLML2SJegZQi2-43" style="edgeStyle=orthogonalEdgeStyle;rounded=0;orthogonalLoop=1;jettySize=auto;html=1;" parent="1" source="KT3608-lLML2SJegZQi2-16" edge="1">
          <mxGeometry relative="1" as="geometry">
            <mxPoint x="691" y="640" as="targetPoint" />
          </mxGeometry>
        </mxCell>
        <mxCell id="KT3608-lLML2SJegZQi2-16" value="Hospital Management Subsystem" style="rounded=1;whiteSpace=wrap;html=1;" parent="1" vertex="1">
          <mxGeometry x="631.5" y="530" width="120" height="60" as="geometry" />
        </mxCell>
        <mxCell id="KT3608-lLML2SJegZQi2-17" style="edgeStyle=orthogonalEdgeStyle;rounded=0;orthogonalLoop=1;jettySize=auto;html=1;startArrow=classicThin;startFill=1;" parent="1" source="KT3608-lLML2SJegZQi2-21" target="KT3608-lLML2SJegZQi2-11" edge="1">
          <mxGeometry relative="1" as="geometry">
            <Array as="points">
              <mxPoint x="640" y="500" />
              <mxPoint x="550" y="500" />
            </Array>
          </mxGeometry>
        </mxCell>
        <mxCell id="KT3608-lLML2SJegZQi2-18" style="edgeStyle=orthogonalEdgeStyle;rounded=0;orthogonalLoop=1;jettySize=auto;html=1;startArrow=classic;startFill=1;jumpStyle=arc;" parent="1" source="KT3608-lLML2SJegZQi2-21" target="KT3608-lLML2SJegZQi2-10" edge="1">
          <mxGeometry relative="1" as="geometry">
            <Array as="points">
              <mxPoint x="530" y="440" />
              <mxPoint x="530" y="500" />
              <mxPoint x="402" y="500" />
            </Array>
          </mxGeometry>
        </mxCell>
        <mxCell id="KT3608-lLML2SJegZQi2-19" style="edgeStyle=orthogonalEdgeStyle;rounded=0;orthogonalLoop=1;jettySize=auto;html=1;startArrow=classic;startFill=1;" parent="1" source="KT3608-lLML2SJegZQi2-21" target="KT3608-lLML2SJegZQi2-16" edge="1">
          <mxGeometry relative="1" as="geometry">
            <Array as="points">
              <mxPoint x="692" y="480" />
              <mxPoint x="692" y="480" />
            </Array>
          </mxGeometry>
        </mxCell>
        <mxCell id="KT3608-lLML2SJegZQi2-20" style="edgeStyle=orthogonalEdgeStyle;rounded=0;orthogonalLoop=1;jettySize=auto;html=1;startArrow=classic;startFill=1;" parent="1" source="KT3608-lLML2SJegZQi2-21" target="KT3608-lLML2SJegZQi2-22" edge="1">
          <mxGeometry relative="1" as="geometry">
            <Array as="points">
              <mxPoint x="830" y="440" />
              <mxPoint x="830" y="500" />
              <mxPoint x="829" y="500" />
            </Array>
          </mxGeometry>
        </mxCell>
        <mxCell id="KT3608-lLML2SJegZQi2-21" value="Patient Subsystem" style="rounded=1;whiteSpace=wrap;html=1;" parent="1" vertex="1">
          <mxGeometry x="550" y="410" width="245" height="60" as="geometry" />
        </mxCell>
        <mxCell id="KT3608-lLML2SJegZQi2-22" value="Chatbot" style="rounded=1;whiteSpace=wrap;html=1;" parent="1" vertex="1">
          <mxGeometry x="768.5" y="530" width="120" height="60" as="geometry" />
        </mxCell>
        <mxCell id="KT3608-lLML2SJegZQi2-23" value="" style="rounded=1;whiteSpace=wrap;html=1;" parent="1" vertex="1">
          <mxGeometry x="540" y="670" width="370" height="130" as="geometry" />
        </mxCell>
        <mxCell id="KT3608-lLML2SJegZQi2-24" style="edgeStyle=orthogonalEdgeStyle;rounded=0;orthogonalLoop=1;jettySize=auto;html=1;startArrow=classic;startFill=1;" parent="1" source="KT3608-lLML2SJegZQi2-25" target="KT3608-lLML2SJegZQi2-30" edge="1">
          <mxGeometry relative="1" as="geometry" />
        </mxCell>
        <mxCell id="KT3608-lLML2SJegZQi2-25" value="Data Storage Subsystem" style="rounded=1;whiteSpace=wrap;html=1;" parent="1" vertex="1">
          <mxGeometry x="751.5" y="705" width="120" height="60" as="geometry" />
        </mxCell>
        <mxCell id="KT3608-lLML2SJegZQi2-26" value="" style="rounded=1;whiteSpace=wrap;html=1;" parent="1" vertex="1">
          <mxGeometry x="120" y="670" width="390" height="130" as="geometry" />
        </mxCell>
        <mxCell id="KT3608-lLML2SJegZQi2-27" value="Lung Disease Classification" style="rounded=1;whiteSpace=wrap;html=1;" parent="1" vertex="1">
          <mxGeometry x="150" y="705" width="120" height="60" as="geometry" />
        </mxCell>
        <mxCell id="KT3608-lLML2SJegZQi2-28" style="edgeStyle=orthogonalEdgeStyle;rounded=0;orthogonalLoop=1;jettySize=auto;html=1;startArrow=classicThin;startFill=1;" parent="1" source="KT3608-lLML2SJegZQi2-29" target="KT3608-lLML2SJegZQi2-27" edge="1">
          <mxGeometry relative="1" as="geometry" />
        </mxCell>
        <mxCell id="KT3608-lLML2SJegZQi2-29" value="Image Detection Subsystem" style="rounded=1;whiteSpace=wrap;html=1;" parent="1" vertex="1">
          <mxGeometry x="350" y="705" width="120" height="60" as="geometry" />
        </mxCell>
        <mxCell id="KT3608-lLML2SJegZQi2-30" value="MongoDB&lt;br&gt;/API" style="shape=cylinder3;whiteSpace=wrap;html=1;boundedLbl=1;backgroundOutline=1;size=15;" parent="1" vertex="1">
          <mxGeometry x="610" y="695" width="60" height="80" as="geometry" />
        </mxCell>
        <mxCell id="KT3608-lLML2SJegZQi2-31" style="edgeStyle=orthogonalEdgeStyle;rounded=0;orthogonalLoop=1;jettySize=auto;html=1;" parent="1" source="KT3608-lLML2SJegZQi2-1" target="KT3608-lLML2SJegZQi2-4" edge="1">
          <mxGeometry relative="1" as="geometry" />
        </mxCell>
        <mxCell id="KT3608-lLML2SJegZQi2-32" style="edgeStyle=orthogonalEdgeStyle;rounded=0;orthogonalLoop=1;jettySize=auto;html=1;entryX=0.457;entryY=0.017;entryDx=0;entryDy=0;entryPerimeter=0;" parent="1" source="KT3608-lLML2SJegZQi2-6" target="KT3608-lLML2SJegZQi2-21" edge="1">
          <mxGeometry relative="1" as="geometry" />
        </mxCell>
        <mxCell id="KT3608-lLML2SJegZQi2-33" style="edgeStyle=orthogonalEdgeStyle;rounded=0;orthogonalLoop=1;jettySize=auto;html=1;startArrow=classic;startFill=1;" parent="1" source="KT3608-lLML2SJegZQi2-6" target="KT3608-lLML2SJegZQi2-15" edge="1">
          <mxGeometry relative="1" as="geometry" />
        </mxCell>
        <mxCell id="KT3608-lLML2SJegZQi2-34" style="edgeStyle=orthogonalEdgeStyle;rounded=0;orthogonalLoop=1;jettySize=auto;html=1;startArrow=classicThin;startFill=1;" parent="1" source="KT3608-lLML2SJegZQi2-9" target="KT3608-lLML2SJegZQi2-29" edge="1">
          <mxGeometry relative="1" as="geometry">
            <Array as="points">
              <mxPoint x="252" y="660" />
              <mxPoint x="410" y="660" />
            </Array>
          </mxGeometry>
        </mxCell>
        <mxCell id="KT3608-lLML2SJegZQi2-35" style="edgeStyle=orthogonalEdgeStyle;rounded=0;orthogonalLoop=1;jettySize=auto;html=1;" parent="1" source="KT3608-lLML2SJegZQi2-22" target="KT3608-lLML2SJegZQi2-25" edge="1">
          <mxGeometry relative="1" as="geometry">
            <Array as="points">
              <mxPoint x="812" y="600" />
              <mxPoint x="812" y="600" />
            </Array>
          </mxGeometry>
        </mxCell>
        <mxCell id="KT3608-lLML2SJegZQi2-36" value="&lt;b&gt;&lt;font style=&quot;font-size: 13px;&quot;&gt;Presentation Layer&lt;/font&gt;&lt;/b&gt;" style="text;html=1;align=center;verticalAlign=middle;resizable=0;points=[];autosize=1;strokeColor=none;fillColor=none;" parent="1" vertex="1">
          <mxGeometry x="450" y="215" width="140" height="30" as="geometry" />
        </mxCell>
        <mxCell id="KT3608-lLML2SJegZQi2-37" value="&lt;b&gt;&lt;font style=&quot;font-size: 13px;&quot;&gt;Business Logic Layer&lt;/font&gt;&lt;/b&gt;" style="text;html=1;align=center;verticalAlign=middle;resizable=0;points=[];autosize=1;strokeColor=none;fillColor=none;" parent="1" vertex="1">
          <mxGeometry x="440" y="380" width="160" height="30" as="geometry" />
        </mxCell>
        <mxCell id="KT3608-lLML2SJegZQi2-38" value="&lt;span style=&quot;font-size: 13px;&quot;&gt;&lt;b&gt;AI Diagnostic Layer&lt;/b&gt;&lt;/span&gt;" style="text;html=1;align=center;verticalAlign=middle;resizable=0;points=[];autosize=1;strokeColor=none;fillColor=none;" parent="1" vertex="1">
          <mxGeometry x="245" y="670" width="140" height="30" as="geometry" />
        </mxCell>
        <mxCell id="KT3608-lLML2SJegZQi2-39" value="&lt;span style=&quot;font-size: 13px;&quot;&gt;&lt;b&gt;Data Persistence Layer&lt;/b&gt;&lt;/span&gt;" style="text;html=1;align=center;verticalAlign=middle;resizable=0;points=[];autosize=1;strokeColor=none;fillColor=none;" parent="1" vertex="1">
          <mxGeometry x="640" y="670" width="170" height="30" as="geometry" />
        </mxCell>
      </root>
    </mxGraphModel>
  </diagram>
</mxfile>
